<?xml version="1.0" ?><svg data-name="Layer 1" id="Layer_1" viewBox="0 0 128 128" xmlns="http://www.w3.org/2000/svg"><defs><style>.cls-1{fill:#c9e593;}.cls-13,.cls-2,.cls-24,.cls-34{fill:#fff;}.cls-14,.cls-16,.cls-18,.cls-21,.cls-22,.cls-25,.cls-3,.cls-31,.cls-32,.cls-33,.cls-35,.cls-4,.cls-5,.cls-7{fill:none;}.cls-3{stroke:#fff;stroke-linecap:square;}.cls-14,.cls-18,.cls-21,.cls-22,.cls-3,.cls-31,.cls-32,.cls-33,.cls-35,.cls-4,.cls-5,.cls-7{stroke-miterlimit:10;}.cls-3,.cls-32,.cls-4{stroke-width:2px;}.cls-4{stroke:#c9e593;}.cls-5{stroke:#9eb56b;}.cls-22,.cls-25,.cls-32,.cls-33,.cls-35,.cls-5{stroke-linecap:round;}.cls-14,.cls-16,.cls-18,.cls-21,.cls-22,.cls-25,.cls-31,.cls-33,.cls-35,.cls-5,.cls-7{stroke-width:4px;}.cls-6{fill:#ffab02;}.cls-7{stroke:#d68f27;}.cls-8{fill:#ffc801;}.cls-9{fill:#925a27;}.cls-10{fill:#b27746;}.cls-11{fill:#9b6736;}.cls-12{fill:#82532b;}.cls-13{opacity:0.2;}.cls-14{stroke:#7f4f2b;}.cls-15{fill:#d64005;}.cls-16,.cls-18{stroke:#b52b00;}.cls-16,.cls-25{stroke-linejoin:round;}.cls-17{fill:#f54f01;}.cls-19{fill:#4c2d1b;}.cls-20{fill:#a87951;}.cls-21{stroke:#6b4125;}.cls-22{stroke:#b7af80;}.cls-23{fill:#a7e8ea;}.cls-23,.cls-34{opacity:0.51;}.cls-24{opacity:0.7;}.cls-25{stroke:#a8c9cc;}.cls-26{fill:#8fcccc;opacity:0.52;}.cls-27{fill:#6d8459;}.cls-28{fill:#445e1b;}.cls-29{fill:#93c15d;}.cls-30{fill:#4e9908;}.cls-31{stroke:#57821e;}.cls-32{stroke:#9fc172;}.cls-33{stroke:#57683a;}.cls-35{stroke:#89a865;}</style></defs><title/><circle class="cls-1" cx="64" cy="64" r="64"/><path class="cls-1" d="M53,40a9.94,9.94,0,0,0-4.29,1A16,16,0,0,0,17,44c0,.09,0,.18,0,.26A8,8,0,1,0,15,60H53a10,10,0,0,0,0-20Z"/><path class="cls-2" d="M53,35a9.94,9.94,0,0,0-4.29,1A16,16,0,0,0,17,39c0,.09,0,.18,0,.26A8,8,0,1,0,15,55H53a10,10,0,0,0,0-20Z"/><path class="cls-1" d="M117,21a9.94,9.94,0,0,0-4.29,1A16,16,0,0,0,81,25c0,.09,0,.18,0,.26A8,8,0,1,0,79,41h38a10,10,0,0,0,0-20Z"/><line class="cls-3" x1="5" x2="15" y1="65" y2="65"/><line class="cls-3" x1="10" x2="10" y1="70" y2="60"/><circle class="cls-4" cx="23" cy="13" r="5"/><path class="cls-3" d="M115.12,48.88A3,3,0,0,0,110,51h0a3,3,0,0,0-5.12-2.12A2.86,2.86,0,0,0,105,53l5,6,5-6A2.86,2.86,0,0,0,115.12,48.88Z"/><path class="cls-2" d="M117,16a9.94,9.94,0,0,0-4.29,1A16,16,0,0,0,81,20c0,.09,0,.18,0,.26A8,8,0,1,0,79,36h38a10,10,0,0,0,0-20Z"/><line class="cls-5" x1="122" x2="40" y1="119" y2="119"/><line class="cls-5" x1="46" x2="5" y1="119" y2="119"/><path class="cls-6" d="M40.5,80.37c-2.17-2.9-5.1-6-8-6s-7.5,7-14.5,2c-2.36-1.69-5.32,2.6-7.5,5.5a32.81,32.81,0,0,0-3.5,6H50.5S42.68,83.27,40.5,80.37Z"/><path class="cls-7" d="M40.5,80.37c-2.18-2.9-5.1-6-8-6s-7.5,7-14.5,2c-2.36-1.69-5.32,2.6-7.5,5.5a32.81,32.81,0,0,0-3.5,6H50.5S42.68,83.27,40.5,80.37Z"/><path class="cls-8" d="M6,88.87c-.91-2.73,2.73-6.77,7-11.5,2.88-3.19,4-3.44,4.5-3.5,1.83-.22,8.48.88,15.5,8.5,5.53,6,10.62,6.52,10.5,7C42.25,94.29,8,94.9,6,88.87Z"/><path class="cls-7" d="M6,88.87c-.91-2.73,2.73-6.77,7-11.5,2.88-3.19,4-3.44,4.5-3.5,1.83-.22,8.48.88,15.5,8.5,5.53,6,10.62,6.52,10.5,7C42.25,94.29,8,94.9,6,88.87Z"/><path class="cls-9" d="M3,86.87v3.5s0,24.5,19,24.5H34c19,0,19-24.5,19-24.5v-3.5Z"/><path class="cls-10" d="M52.93,91.87H35.5v4h17A40.24,40.24,0,0,0,52.93,91.87Z"/><rect class="cls-11" height="4" width="27.5" x="18" y="87.87"/><rect class="cls-12" height="4" width="27.5" x="8" y="91.87"/><path class="cls-12" d="M33,107.87v4H43.93a17.1,17.1,0,0,0,3.91-4Z"/><path class="cls-11" d="M3.55,95.87H8v-4H3.07A40.24,40.24,0,0,0,3.55,95.87Z"/><rect class="cls-11" height="4" width="27.5" x="8" y="95.87"/><path class="cls-10" d="M12.07,111.87H25v-4H8.15A17.1,17.1,0,0,0,12.07,111.87Z"/><rect class="cls-11" height="4" width="27.5" x="18" y="103.87"/><path class="cls-12" d="M51.54,99.87h-11v4h9.6A30.58,30.58,0,0,0,51.54,99.87Z"/><path class="cls-11" d="M22,114.85,34,115c.51,0,1,0,1.5,0l0-2.94-23.43-.3A16.51,16.51,0,0,0,22,114.85Z"/><path class="cls-10" d="M5.9,103.87H22v-4H4.46A30.58,30.58,0,0,0,5.9,103.87Z"/><path class="cls-10" d="M3,90.37s0,.56.07,1.5H18v-4H3Z"/><path class="cls-13" d="M48.83,86.87H3v3.5s0,12.33,6.78,19.49a3.13,3.13,0,0,0,2.28-4.09A38.39,38.39,0,0,1,10,94.37v-.5a3,3,0,0,1,3-3H45.88a3.09,3.09,0,0,0,3-2.35A3,3,0,0,0,48.83,86.87Z"/><path class="cls-14" d="M3,86.87v3.5s0,24.5,19,24.5H34c19,0,19-24.5,19-24.5v-3.5Z"/><path class="cls-15" d="M113.5,80.37c-2.17-2.9-5.1-6-8-6s-7.5,7-14.5,2c-2.36-1.69-5.33,2.6-7.5,5.5a32.81,32.81,0,0,0-3.5,6h43.5S115.68,83.27,113.5,80.37Z"/><path class="cls-16" d="M113.5,80.37c-2.18-2.9-5.1-6-8-6s-7.5,7-14.5,2c-2.36-1.69-5.32,2.6-7.5,5.5a32.81,32.81,0,0,0-3.5,6h43.5S115.68,83.27,113.5,80.37Z"/><path class="cls-17" d="M79,88.87c-.91-2.73,2.73-6.77,7-11.5,2.88-3.19,4-3.44,4.5-3.5,1.83-.22,8.48.88,15.5,8.5,5.53,6,10.62,6.52,10.5,7C115.25,94.29,81,94.9,79,88.87Z"/><path class="cls-18" d="M79,88.87c-.91-2.73,2.73-6.77,7-11.5,2.88-3.19,4-3.44,4.5-3.5,1.83-.22,8.48.88,15.5,8.5,5.53,6,10.62,6.52,10.5,7C115.25,94.29,81,94.9,79,88.87Z"/><path class="cls-9" d="M76,86.87v3.5s0,24.5,19,24.5h12c19,0,19-24.5,19-24.5v-3.5Z"/><path class="cls-10" d="M125.93,91.87H108.5v4h17A40.24,40.24,0,0,0,125.93,91.87Z"/><rect class="cls-11" height="4" width="27.5" x="91" y="87.87"/><rect class="cls-12" height="4" width="27.5" x="81" y="91.87"/><path class="cls-12" d="M106,107.87v4h10.93a17.1,17.1,0,0,0,3.91-4Z"/><path class="cls-11" d="M76.55,95.87H81v-4H76.07A40.24,40.24,0,0,0,76.55,95.87Z"/><rect class="cls-11" height="4" width="27.5" x="81" y="95.87"/><path class="cls-10" d="M85.07,111.87H98v-4H81.15A17.1,17.1,0,0,0,85.07,111.87Z"/><rect class="cls-11" height="4" width="27.5" x="91" y="103.87"/><path class="cls-12" d="M124.54,99.87h-11v4h9.6A30.58,30.58,0,0,0,124.54,99.87Z"/><path class="cls-11" d="M95,114.85l12,.15c.51,0,1,0,1.5,0l0-2.94-23.43-.3A16.51,16.51,0,0,0,95,114.85Z"/><path class="cls-10" d="M78.9,103.87H95v-4H77.46A30.58,30.58,0,0,0,78.9,103.87Z"/><path class="cls-10" d="M76,90.37s0,.56.07,1.5H91v-4H76Z"/><path class="cls-13" d="M121.83,86.87H76v3.5s0,12.33,6.78,19.49a3.13,3.13,0,0,0,2.28-4.09A38.39,38.39,0,0,1,83,94.37v-.5a3,3,0,0,1,3-3h32.88a3.09,3.09,0,0,0,3-2.35A3,3,0,0,0,121.83,86.87Z"/><path class="cls-14" d="M76,86.87v3.5s0,24.5,19,24.5h12c19,0,19-24.5,19-24.5v-3.5Z"/><path class="cls-19" d="M91,41H87V32H41v9H37v6h4v7a6,6,0,0,0,6,6H81a6,6,0,0,0,6-6V47h4Z"/><path class="cls-11" d="M95.94,12.13C96,11.07,96,10,96,9c0-7.66-28-7-36-7S32,1.34,32,9c0,1,0,2.07.07,3.14a4,4,0,0,0,4,3.86h.66a4,4,0,0,0-4,4.48c.74,6.5,5.87,4.7,6.58,8.3A4,4,0,0,0,43.26,32H84.77a4,4,0,0,0,3.92-3.19c.73-3.56,5.88-1.71,6.61-8.37a4,4,0,0,0-4-4.44h.62A4,4,0,0,0,95.94,12.13Z"/><path class="cls-20" d="M71.5,8h2.28c1.8-.3,4.05-1.52,4.41-5.61C71,1.87,63.54,2,60,2c-8,0-28-.66-28,7,0,1,0,2.07.07,3.14a4,4,0,0,0,4,3.86h.66a4,4,0,0,0-4,4.48c.68,5.94,5,5,6.3,7.5a9.43,9.43,0,0,1-.3-1.5c-.27-2.38-.59-6.19-.68-8.34C38,17.07,38,16,38,15c0-7.66,20-7,28-7,1.34,0,3.26,0,5.5,0Z"/><line class="cls-21" x1="35" x2="93" y1="16" y2="16"/><path class="cls-14" d="M95.94,12.13C96,11.07,96,10,96,9c0-7.66-28-7-36-7S32,1.34,32,9c0,1,0,2.07.07,3.14a4,4,0,0,0,4,3.86h.66a4,4,0,0,0-4,4.48c.74,6.5,5.87,4.7,6.58,8.3A4,4,0,0,0,43.26,32H84.77a4,4,0,0,0,3.92-3.19c.73-3.56,5.88-1.71,6.61-8.37a4,4,0,0,0-4-4.44h.62A4,4,0,0,0,95.94,12.13Z"/><line class="cls-22" x1="30" x2="98" y1="12" y2="12"/><rect class="cls-23" height="8" rx="4" ry="4" width="56" x="36" y="40"/><path class="cls-24" d="M63.08,40H40a4,4,0,0,0,0,8H60V46a7,7,0,0,0,6.92-6Z"/><rect class="cls-25" height="8" rx="4" ry="4" width="56" x="36" y="40"/><path class="cls-23" d="M40.54,48C31.57,77.08,26,78,26,91.5c0,26.51,11.49,28,38,28s38-1.49,38-28C102,78,96.43,77.08,87.46,48Z"/><rect class="cls-26" height="4" width="48" x="40" y="50"/><path class="cls-27" d="M67.67,119.49H60.33c-9.31-.07-16.58-.51-22-2.51,1.46,4.45,7.35,9,11.65,9H78c4.3,0,10.19-4.57,11.65-9C84.25,119,77,119.41,67.67,119.49Z"/><path class="cls-28" d="M102,92.11c-4.77-2.79-9.26-5.8-11-8.11-4.35-5.8-10.2-12-16-12-2.83,0-6.48,3.34-11.11,5.59C54.9,71.7,47.57,70.69,45,71c-1.09.13-3.24.61-9,7-3.81,4.22-7.35,8.16-10,11.72,0,.57,0,1.16,0,1.78,0,1.15,0,2.24.07,3.3h0q0,1.12.13,2.17h0q.08,1.06.19,2h0C28.58,118.29,40.27,119.5,64,119.5c23.08,0,34.77-1.14,37.41-18.92-1-.22.1-.75.1-.75A63.1,63.1,0,0,0,102,92.11Z"/><path class="cls-29" d="M36.83,101.82c2.38,1.2,13.32,4.46,20.86-2.47a18.1,18.1,0,0,0,4.12-5.48c-.37,2.81-.58,5.82,1.18,8.67,2.61,4.24,8.48,6.33,9.9,4.95.34-.33.31-.75.35-1.77.19-4.7,1.23-5,1.06-7.42-.22-3.14-2.11-5.41-3.66-7.17a14,14,0,0,0,7.55,1.16c3.82-.49,6.17-2.75,9.19-5.66,1.21-1.16,5.27-5.07,4.24-7.07a2.54,2.54,0,0,0-1.77-1.06c-6.41-1.64-9.62-2.47-12-2.12-3,.42-7.7,1.11-9.9,4.95,0,.08-.16.29-.29.57a18.31,18.31,0,0,0-.77-4.46c-1.26-4.51-4.82-9.41-7.42-8.84-.88.19-1.37,1-2.12,2.12a11.74,11.74,0,0,0-1.41,8.49c.29,1.28,1.17,5.14,4.6,6.72.26.12,3.59,1.6,5.66,0a3.21,3.21,0,0,0,.65-.67,6.4,6.4,0,0,0,.08,1.25l-1.55.41a2,2,0,0,0-.95.06,2.26,2.26,0,0,0-1.16,1l-1.21.5a7.1,7.1,0,0,0-2.58-2.89c-4-2.66-9.41-.54-11.67.35-3.63,1.43-6.19,4.49-11.31,10.61-.65.78-1.8,2.19-1.41,3.54A3.19,3.19,0,0,0,36.83,101.82ZM67.2,87.6l0,.08.06.13-.46-.31Zm-4.74,2.31a5.46,5.46,0,0,0-.18-.8l.56-.38A8.81,8.81,0,0,0,62.46,89.91Z"/><path class="cls-30" d="M38,91c4.58-8.68,19.23-8.07,21-8,20.47.85,31.33,20.94,33,26,.33,1,1,3.18,0,5-1.36,2.44-5,2.82-7,3-15.9,1.41-23.84,2.11-31-1-4.45-1.94-15.07-6.55-17-16A13.67,13.67,0,0,1,38,91Z"/><path class="cls-31" d="M38,91c4.58-8.68,19.23-8.07,21-8,20.47.85,31.33,20.94,33,26,.33,1,1,3.18,0,5-1.36,2.44-5,2.82-7,3-15.9,1.41-23.84,2.11-31-1-4.45-1.94-15.07-6.55-17-16A13.67,13.67,0,0,1,38,91Z"/><path class="cls-32" d="M32,90s29,3,53,22"/><path class="cls-32" d="M48,94s-5,12,10,19"/><path class="cls-32" d="M55,95s1-8,14-6"/><path class="cls-32" d="M66,101s-3,6,6,13"/><path class="cls-32" d="M70,102s5-6,12-4"/><path class="cls-33" d="M38.53,117.49C40.26,121.77,45.86,126,50,126H78c4.2,0,9.93-4.37,11.55-8.71"/><path class="cls-34" d="M81,54H38.12c-1,3.43-2.72,10-2.72,10C29,75,26,78.82,26,89.5a31.91,31.91,0,0,0,2.22,12.56c5.21-2.18,5.83-7.46,5.91-8.55v-.2h0C35,79.65,46,62.71,46,62.71l.36-1.25A4.78,4.78,0,0,1,50.93,58h0a4.77,4.77,0,0,1,4.74,5.31C54,78.05,53,80.92,53,91.5v.15A11.23,11.23,0,0,0,63.62,103,11,11,0,0,0,75,92q0-.27,0-.54c0-10.78-1-13.56-2.77-29a4,4,0,0,1,4-4.45h.54A4.15,4.15,0,0,0,81,54Z"/><path class="cls-25" d="M102,91c-.14-13-5.68-14.29-14.53-43H40.54c-7,22.7-11.93,28.24-13.76,36"/><path class="cls-35" d="M26.78,84A32,32,0,0,0,26,91.5c0,26.51,11.49,28,38,28s38-1.49,38-28c0-.17,0-.33,0-.5"/></svg>