<?xml version="1.0" ?><svg viewBox="0 0 64 64" xmlns="http://www.w3.org/2000/svg"><title/><g data-name="25-Hot cooking" id="_25-Hot_cooking"><path d="M55,23h0a3.511,3.511,0,0,0-2.963-3.467L36,17H28L11.963,19.532A3.511,3.511,0,0,0,9,23H9" style="fill:none;stroke:#000;stroke-linejoin:round;stroke-width:2px"/><path d="M25,1c0,1.333-2,1.333-2,2.667S25,5,25,6.333,23,7.667,23,9" style="fill:none;stroke:#000;stroke-linejoin:round;stroke-width:2px"/><path d="M33,1c0,1.333-2,1.333-2,2.667S33,5,33,6.333,31,7.667,31,9" style="fill:none;stroke:#000;stroke-linejoin:round;stroke-width:2px"/><path d="M41,1c0,1.333-2,1.333-2,2.667S41,5,41,6.333,39,7.667,39,9" style="fill:none;stroke:#000;stroke-linejoin:round;stroke-width:2px"/><polyline points="60 60 63 60 63 63 1 63 1 60 4 60" style="fill:none;stroke:#000;stroke-linejoin:round;stroke-width:2px"/><line style="fill:none;stroke:#000;stroke-linejoin:round;stroke-width:2px" x1="6" x2="58" y1="60" y2="60"/><path d="M36,55a4,4,0,0,1-8,0c0-2.209,3-8,4-8S36,52.791,36,55Z" style="fill:none;stroke:#000;stroke-linejoin:round;stroke-width:2px"/><path d="M52,55a4,4,0,0,1-4,4c-2.209,0-4-.791-4-3s5-9,6-9S52,52.791,52,55Z" style="fill:none;stroke:#000;stroke-linejoin:round;stroke-width:2px"/><path d="M12,55a4,4,0,0,0,4,4c2.209,0,4-.791,4-3s-5-9-6-9S12,52.791,12,55Z" style="fill:none;stroke:#000;stroke-linejoin:round;stroke-width:2px"/><path d="M51,57a4,4,0,0,0,4-4V23H9V53a4,4,0,0,0,4,4" style="fill:none;stroke:#000;stroke-linejoin:round;stroke-width:2px"/><line style="fill:none;stroke:#000;stroke-linejoin:round;stroke-width:2px" x1="35" x2="44" y1="57" y2="57"/><line style="fill:none;stroke:#000;stroke-linejoin:round;stroke-width:2px" x1="20" x2="29" y1="57" y2="57"/><path d="M58,27h4a1,1,0,0,1,1,1v2a1,1,0,0,1-1,1H55V27" style="fill:none;stroke:#000;stroke-linejoin:round;stroke-width:2px"/><path d="M60,31l-1.447,2.894A2,2,0,0,1,56.764,35H55" style="fill:none;stroke:#000;stroke-linejoin:round;stroke-width:2px"/><path d="M6,27H2a1,1,0,0,0-1,1v2a1,1,0,0,0,1,1H9V27" style="fill:none;stroke:#000;stroke-linejoin:round;stroke-width:2px"/><path d="M4,31l1.447,2.894A2,2,0,0,0,7.236,35H9" style="fill:none;stroke:#000;stroke-linejoin:round;stroke-width:2px"/><line style="fill:none;stroke:#000;stroke-linejoin:round;stroke-width:2px" x1="12" x2="9" y1="27" y2="27"/><line style="fill:none;stroke:#000;stroke-linejoin:round;stroke-width:2px" x1="16" x2="14" y1="27" y2="27"/><line style="fill:none;stroke:#000;stroke-linejoin:round;stroke-width:2px" x1="55" x2="18" y1="27" y2="27"/><path d="M32,11h0a4,4,0,0,1,4,4v2a0,0,0,0,1,0,0H28a0,0,0,0,1,0,0V15A4,4,0,0,1,32,11Z" style="fill:none;stroke:#000;stroke-linejoin:round;stroke-width:2px"/></g></svg>